<?xml version="1.0" encoding="utf-8"?>
<!-- Generator: Adobe Illustrator 29.5.1, SVG Export Plug-In . SVG Version: 9.03 Build 0)  -->
<svg version="1.0"
	 id="svg4768" xmlns:dc="http://purl.org/dc/elements/1.1/" xmlns:rdf="http://www.w3.org/1999/02/22-rdf-syntax-ns#" xmlns:svg="http://www.w3.org/2000/svg" xmlns:cc="http://creativecommons.org/ns#"
	 xmlns="http://www.w3.org/2000/svg" xmlns:xlink="http://www.w3.org/1999/xlink" x="0px" y="0px" viewBox="0.17 0.2 48 48"
	 style="enable-background:new 0.17 0.2 48 48;" xml:space="preserve">
<style type="text/css">
	.st0{fill-rule:evenodd;clip-rule:evenodd;fill:#FFFFFF;}
</style>
<path id="path4237" class="st0" d="M16.39,39.57c0,0,1.85,0.13,4.23-0.08c0.96-0.08,4.62-0.44,7.36-1.04c0,0,3.34-0.71,5.12-1.37
	c1.87-0.69,2.88-1.27,3.34-2.1c-0.02-0.17,0.14-0.77-0.72-1.13c-2.2-0.92-4.76-0.76-9.81-0.86c-5.6-0.19-7.47-1.13-8.46-1.89
	c-0.95-0.77-0.47-2.89,3.61-4.75c2.06-0.99,10.11-2.83,10.11-2.83c-2.71-1.34-7.77-3.7-8.81-4.21c-0.91-0.45-2.37-1.12-2.69-1.93
	c-0.36-0.78,0.85-1.45,1.52-1.65c2.17-0.63,5.23-1.01,8.02-1.06c1.4-0.02,1.63-0.11,1.63-0.11c1.93-0.32,3.21-1.64,2.68-3.74
	c-0.48-2.14-2.99-3.4-5.37-2.96c-2.25,0.41-7.66,1.98-7.66,1.98c6.69-0.06,7.81,0.05,8.32,0.75c0.3,0.41-0.13,0.98-1.92,1.27
	c-1.94,0.32-5.98,0.7-5.98,0.7c-3.88,0.23-6.61,0.25-7.43,1.98c-0.53,1.13,0.57,2.13,1.06,2.76c2.05,2.28,5.01,3.51,6.91,4.41
	c0.72,0.34,2.82,0.98,2.82,0.98c-6.18-0.34-10.63,1.56-13.24,3.74c-2.96,2.73-1.65,5.99,4.41,8c3.58,1.19,5.35,1.74,10.69,1.26
	c3.14-0.17,3.64-0.07,3.67,0.19c0.04,0.36-3.49,1.26-4.46,1.54C22.86,38.14,16.42,39.57,16.39,39.57z"/>
</svg>
